<svg xmlns="http://www.w3.org/2000/svg" version="1.1" xlink="http://www.w3.org/1999/xlink" xmlns:svgjs="http://svgjs.com/svgjs" width="100%" height="100%" viewBox="5 5 90 90"><g fill="#f45db7"><path d="M43.216 46.429a13.695 13.695 0 0 0-2.828-.303c-7.445 0-13.482 6.037-13.482 13.486 0 7.445 6.037 13.482 13.482 13.482 7.449 0 13.486-6.037 13.486-13.482 0-.973-.11-1.916-.303-2.828l-4.377 4.377a7.253 7.253 0 0 1-5.172 2.142 7.274 7.274 0 0 1-5.184-2.149c-2.851-2.854-2.851-7.497 0-10.348l4.378-4.377z"></path><path d="M60.104 50.251a21.707 21.707 0 0 1 2.129 9.361c0 12.066-9.779 21.846-21.845 21.846-12.066 0-21.846-9.779-21.846-21.846 0-12.065 9.779-21.845 21.846-21.845a21.7 21.7 0 0 1 9.361 2.129l9.933-9.933c-5.556-3.618-12.174-5.743-19.294-5.743C20.842 24.221 5 40.067 5 59.612 5 79.158 20.842 95 40.388 95 59.933 95 75.78 79.158 75.78 59.612c0-7.12-2.125-13.738-5.743-19.294l-9.933 9.933z"></path><path d="M84.078 5H73.154l-3.63 18.21-29.141 29.142a5.137 5.137 0 0 0 0 7.257l.009.009a5.137 5.137 0 0 0 7.257 0L76.79 30.476 95 26.846V15.922H84.078V5z"></path></g></svg>