<svg xmlns="http://www.w3.org/2000/svg" version="1.1" xlink="http://www.w3.org/1999/xlink" xmlns:svgjs="http://svgjs.com/svgjs" width="100%" height="100%" viewBox="6.400000095367432 -84.3499984741211 226.49000549316406 85.54999542236328"><g fill="#f45db7"><path d="M6.4 -83.05L6.4 0L35.15 0L35.15 -26.31L55.8 -3.64L77.01 -26.94L77.01 0L111.18 0L111.18 -83.05L99.69 -83.05L58.45 -45.34L18.3 -83.05Z M145.27 -83.05L145.27 -0.21C146.03 -0.14 147.12 -0.08 148.55 -0.03C149.97 0.03 151.6 0.1 153.43 0.18C155.27 0.27 157.25 0.35 159.36 0.42C161.48 0.49 163.63 0.56 165.81 0.65C167.99 0.74 170.15 0.81 172.28 0.86C174.42 0.91 176.39 0.96 178.21 1.01C180.03 1.07 181.65 1.11 183.07 1.14C184.5 1.18 186.18 1.2 188.12 1.2C190.06 1.2 192.78 1.13 196.28 0.99C220.69 0.09 232.89 -8.25 232.89 -24.02C232.89 -31.34 231.07 -37.09 227.43 -41.29C224.66 -44.48 220.71 -46.94 215.58 -48.67C219.67 -50.54 222.71 -52.77 224.7 -55.36C226.69 -57.94 227.69 -61.14 227.69 -64.95C227.69 -71.29 224.71 -76.03 218.75 -79.15C212.09 -82.61 201.12 -84.35 185.83 -84.35C177.61 -84.35 164.09 -83.91 145.27 -83.05ZM198.31 -32.29C198.35 -29 196.73 -26.26 193.47 -24.08C191.46 -22.72 187.69 -21.01 182.14 -18.93C180.58 -18.34 179.58 -17.96 179.15 -17.78C178.72 -17.61 178.26 -17.44 177.77 -17.26L177.77 -30.37C178.67 -30.85 179.76 -31.44 181.05 -32.14C186.52 -35.19 190.56 -36.7 193.16 -36.66C196.59 -36.66 198.31 -35.2 198.31 -32.29ZM177.77 -45.03L177.77 -58.55C177.84 -58.62 178.72 -59.15 180.4 -60.14C182.08 -61.13 183.61 -61.88 185 -62.4C185.9 -62.78 186.81 -63.09 187.73 -63.34C188.65 -63.58 189.45 -63.7 190.15 -63.7C190.84 -63.7 191.5 -63.61 192.12 -63.44C194.41 -62.82 195.55 -61.41 195.55 -59.23C195.55 -56.11 193.54 -53.2 189.52 -50.49C187.58 -49.14 183.66 -47.32 177.77 -45.03Z"></path></g></svg>