<svg xmlns="http://www.w3.org/2000/svg" viewBox="0 0 200 200" class="svg-logo" width="315" height="215"
    style="height: auto;">
    <rect rx="50%" ry="50%" width="100%" height="100%" fill="#5900b1"></rect>
    <g data-element="wrapper" transform="translate(70.87499999999852 51.125000262259476) scale(0.5500000000000094)">
        <g>
            <g data-element="icon"
                transform="scale(0.20999993896486857) translate(-50 -100)">
                <path id="color_x5F_2_3_" fill="#ff59ec"
                    d="M312.266,564.176C471.069,566.677,600,438.037,600,284.243S475.325,5.772,321.531,5.772    c-152.905,0-277.002,123.239-278.436,275.803l72.809-34.08c17.365-97.821,102.821-172.105,205.628-172.105    c115.347,0,208.853,93.507,208.853,208.853c0,108.281-82.406,197.313-187.924,207.813L312.266,564.176z">
                </path>
                <path id="color_x5F_1_6_" fill="#ff59ec"
                    d="M232.762,584.323c3.146,12.661,10.056,13.266,15.36,1.345l182.226-409.754    c5.302-11.919-0.113-17.336-12.035-12.034L8.558,346.107c-11.918,5.301-11.314,12.213,1.346,15.361l109.791,27.293    c12.659,3.148,15.47,13.271,6.245,22.496L18.673,518.528c-9.227,9.224-0.758,15.852,8.469,25.077l23.48,23.483    c9.225,9.225,15.852,17.694,25.077,8.469l107.269-107.269c9.228-9.226,19.348-6.416,22.499,6.246L232.762,584.323z">
                </path>
            </g>
            <text transform="translate(-60, 160)" fill="#ff59ec"
                font-family="IosevkaBoldExtendedOblique" font-size="50" data-element="company-name" dx="0 0 0 0 0 0">
                Mobile dev
            </text>
                
            <text
                transform="translate(-20 199.3842010498047)" fill="#ff59ec"
                font-family="IosevkaBoldExtendedOblique" font-size="28.8" data-element="slogan" dx="0 0 0 0 0 0 0 0 0 0 0 0">
                Flutter Apps
            </text>
        </g>
    </g>
</svg>